<?xml version="1.0" encoding="utf-8"?>
<!-- Generator: Adobe Illustrator 24.0.1, SVG Export Plug-In . SVG Version: 6.00 Build 0)  -->
<svg version="1.1" id="Layer_1" xmlns="http://www.w3.org/2000/svg" xmlns:xlink="http://www.w3.org/1999/xlink" x="0px" y="0px"
	 viewBox="0 0 139 39" style="enable-background:new 0 0 139 39;" xml:space="preserve">
<g>
	<g>
		<path d="M8.83,14.13l5.01-11.22h7.88L14.8,18.19l8.83,17.42h-8.35L8.59,23.2v12.41l0,0H0V2.91h8.59v11.46L8.83,14.13z"/>
	</g>
	<g>
		<path d="M28.64,3.15c2.24,0,4.06,1.82,4.06,4.06s-1.82,4.06-4.06,4.06s-4.06-1.82-4.06-4.06S26.4,3.15,28.64,3.15z"/>
	</g>
	<g>
		<path d="M24.35,12.7h8.12v22.91h-8.12V12.7z"/>
	</g>
	<g>
		<path d="M42.49,22.43c-0.13,6.24,0,13.18,0,13.18h-7.64V12.7h7.64c0,0,0,1.75,0,4.29c0,0,0.59-0.21,0.72-0.95
			c0.07-0.67,0.37-3.27,2.15-3.34c1.53,0.02,5.35-0.59,8.35,3.34c1.66,2.36,2.62,4.46,2.39,8.12c-0.02,4.05,0,11.46,0,11.46h-7.4
			c0,0,0-12.53,0-13.37s-0.95-2.61-2.63-2.63S42.47,20.25,42.49,22.43z"/>
	</g>
	<g>
		<path d="M58,2.91h8.59v32.7H58V2.91z"/>
	</g>
	<g>
		<path d="M79.72,11.5c-6.72,0-12.17,5.5-12.17,12.29c0,6.79,5.45,12.29,12.17,12.29c6.72,0,12.17-5.5,12.17-12.29
			C91.89,17.01,86.44,11.5,79.72,11.5z M79.72,28.45c-2.37,0-4.3-2.03-4.3-4.54c0-2.5,1.92-4.54,4.3-4.54c2.37,0,4.3,2.03,4.3,4.54
			C84.02,26.42,82.09,28.45,79.72,28.45z"/>
	</g>
	<g>
		<path d="M116.67,22.72c-0.54-6.28-5.76-11.22-12.13-11.22c-6.72,0-12.17,5.5-12.17,12.29s5.45,12.29,12.17,12.29
			c6.38,0,11.61-4.95,12.13-11.26c0.01-0.15,0.02-0.29,0.03-0.44h-7.97c0,0-0.98,4.16-3.95,4.3c-3.17,0-4.77-2.85-4.77-4.54
			s1.06-4.77,4.3-4.77c3.24,0,4.3,2.83,4.3,3.34C108.6,22.72,116.69,22.95,116.67,22.72z"/>
	</g>
	<g>
		<path d="M117.91,12.7c0,0,0,0.23,0,0.66c0,3.75,0,22.26,0,22.26h7.64c0,0-0.13-6.94,0-13.18c-0.02-2.18,1.91-2.82,3.58-2.81
			s2.63,1.79,2.63,2.63s0,13.37,0,13.37h7.4c0,0-0.02-7.41,0-11.46c0.23-3.66-0.73-5.76-2.39-8.12c-3.01-3.93-6.82-3.32-8.35-3.34
			c-1.77,0.07-2.08,2.67-2.15,3.34c-0.13,0.74-0.72,0.95-0.72,0.95c0-1.37,0-2.52,0-3.28c0-0.65,0-1.01,0-1.01V2.91h-7.64V12.7z"/>
	</g>
	<g>
		<path d="M42.5,16.57c0,2.11,0.74,2.83,1.66,2.83c0.92,0,1.66-0.72,1.66-2.83s-0.74-3.83-1.66-3.83
			C43.24,12.74,42.5,14.45,42.5,16.57z"/>
	</g>
	<g>
		<path d="M46.88,12.68l-1.46,0.03l-1.27,0.03l-0.3,0.9c0,0-0.12,0.5,0.18,0.61c0.3,0.11,1,0.35,1.71,0.17
			c0.71-0.18,1.13-0.37,1.26-0.54C47.13,13.71,46.88,12.68,46.88,12.68z"/>
	</g>
</g>
</svg>
